<svg xmlns="http://www.w3.org/2000/svg" viewBox="0 0 1212 354" width="1212" height="354">
	<style>
		tspan { white-space:pre }
		.shp0 { fill: #fdc305 } 
		.shp1 { fill: #f06351 } 
		.shp2 { fill: #e55645 } 
		.shp3 { fill: #000000 } 
		.shp4 { fill: #111111 } 
		.shp5 { fill: #444444 } 
	</style>
	<g id="Layer 1">
		<path id="&lt;Compound Path&gt;" fill-rule="evenodd" class="shp0" d="M276.76 342.09C268.72 345.44 260.56 348.07 252.35 349.99C254.06 348.22 255.88 345.69 257.33 343.07C261.53 335.52 268.43 308.22 271.75 282.63C271.87 281.77 271.97 280.9 272.08 280.03C272.09 279.96 272.1 279.89 272.1 279.82C267.53 288.14 261.48 295.71 254.7 302.09C253.77 315.12 248.93 335.37 247.21 346.54C246.88 348.68 246.89 350.16 247.14 351.11C236.45 353.22 225.7 354.16 215.06 353.98C214.42 344.34 213.86 335.21 213.38 326.59C213.43 326.57 213.47 326.55 213.51 326.53C203.42 322.03 193.89 317.15 184.89 311.19C188.07 325.92 191.56 339.78 195.04 352.33C143.58 344.66 97.28 311.05 75.76 259.54C43.05 181.25 80.01 91.26 158.31 58.54C236.6 25.83 326.59 62.79 359.3 141.09C392.02 219.38 355.06 309.37 276.76 342.09ZM355.64 153.1C351.88 145.3 346.1 137.2 344.65 134.89C343.21 132.57 330.77 117.25 328.75 114.65C327.4 112.91 325.86 112.14 324.12 112.33C309.09 112.14 292.8 116.09 275.26 124.19C275.43 120.53 275.55 116.87 275.61 113.22C235.08 112.99 194.3 115.77 154.14 121.24L153.82 134.89C129.15 133.54 114.6 132.67 110.16 132.29C105.73 131.9 103.22 132.38 102.64 133.73C99.17 136.24 95.03 142.02 90.21 151.08C85.01 159.18 81.15 166.6 78.65 173.34C74.89 183.46 75.47 192.14 80.38 192.14C85.3 192.14 92.81 192.43 92.52 189.53C92.33 187.61 91.37 184.72 89.63 180.86C89.44 170.64 92.91 162.93 100.04 157.73C110.74 149.92 115.94 151.66 124.33 153.97C129.92 155.51 140.33 159.18 155.56 164.96L170.98 244.07C170.98 244.07 170.98 244.07 170.98 244.07C171.09 244.08 171.19 244.1 171.27 244.11C171.35 244.12 171.42 244.13 171.48 244.14C171.49 244.14 171.49 244.14 171.5 244.14C171.62 244.16 171.7 244.17 171.73 244.18C171.74 244.18 171.74 244.18 171.75 244.18L177.82 279.17C185.14 278.4 200.76 274.83 224.66 268.47C248.56 262.11 264.85 257.77 273.54 255.46L273.54 255.46C274.27 225.81 272.95 187.09 272.95 176.81C272.95 163.22 274.34 163.73 281.33 155.99C289.43 147.03 320.08 125.92 324.41 126.21C327.3 126.41 332.61 133.35 340.32 147.03C340.51 150.69 340.89 155.13 341.47 160.33C342.34 168.14 347.83 166.4 350.44 163.8C352.17 162.07 353.91 158.5 355.64 153.1Z" />
		<g id="&lt;Group&gt;">
			<path id="&lt;Path&gt;" class="shp1" d="M338.73 127.16C341.58 130.75 344.05 133.93 344.65 134.89C346.1 137.2 351.88 145.3 355.64 153.1C353.91 158.5 352.17 162.07 350.44 163.8C347.83 166.4 342.34 168.14 341.47 160.33C340.89 155.13 340.51 150.69 340.32 147.03C332.61 133.35 327.3 126.41 324.41 126.21C320.08 125.92 289.43 147.03 281.33 155.99C274.34 163.73 272.95 163.22 272.95 176.81C272.95 185.83 273.96 216.71 273.72 244.17C284.58 245.42 300.52 248.43 305.33 255.46C304.17 226.74 319.79 219.89 352.17 234.93C353.33 195.8 376.27 181.25 420.99 191.27C398.31 163.43 370.9 142.06 338.73 127.16Z" />
		</g>
		<g id="&lt;Group&gt;">
			<path id="&lt;Path&gt;" class="shp1" d="M275.61 113.22C276.19 79.17 273.38 46.1 267.16 14.03C266.59 8.82 264.85 8.34 261.96 12.58C259.07 16.82 256.66 24.73 254.73 36.29C224.85 34.56 199.22 35.23 177.82 38.32C172.9 21.83 164.52 14.61 160.47 16.34C157.77 17.5 156.33 24.15 156.13 36.29L154.14 121.24C194.3 115.77 235.08 112.99 275.61 113.22Z" />
		</g>
		<g id="&lt;Group&gt;">
			<path id="&lt;Path&gt;" class="shp2" d="M272.1 279.82C272.86 273.43 273.31 264.9 273.54 255.46C264.85 257.77 248.56 262.11 224.66 268.47C200.76 274.83 185.14 278.4 177.82 279.17L184.47 309.24C184.61 309.89 184.75 310.54 184.89 311.19C193.89 317.15 203.42 322.03 213.51 326.53C231 317.87 244.74 309.6 254.73 301.72C254.72 301.84 254.71 301.97 254.7 302.09C261.48 295.71 267.53 288.14 272.1 279.82Z" />
		</g>
		<path id="&lt;Path&gt;" class="shp3" d="M191.99 94.41C191.71 93.86 198.15 98.51 200.46 99.95C202.77 101.4 204.13 102.5 204.13 103.52C204.13 104.53 202.54 105.54 200.37 105.54C198.2 105.54 194.88 104.82 194.59 103.95C197 103.85 198.88 103.81 200.23 103.81L201.96 103.81C196.37 99.66 193.05 96.53 191.99 94.41Z" />
		<g id="&lt;Group&gt;">
			<path id="&lt;Path&gt;" class="shp3" d="M237 95.09C232.8 100.21 230.62 102.88 230.46 103.12C230.23 103.47 229.46 105.17 231.58 104.88C233.69 104.59 238.27 103.53 238.92 103.18C239.56 102.83 239.33 102 238.21 102.12C236.98 102.25 234.1 102.41 232.28 102.77L237.35 95.17C237.45 94.7 237.34 94.67 237 95.09Z" />
		</g>
		<g id="&lt;Group&gt;">
			<path id="&lt;Path&gt;" class="shp3" d="M218.14 131.78C221.39 130.37 223.58 128.35 224.7 125.71C226.38 121.75 224.91 120.21 222.04 119.82C219.17 119.42 213.96 119.64 211.58 121.86C209.19 124.08 209.52 126.25 211.25 127.6C212.99 128.96 216.35 131.24 218.14 131.78Z" />
		</g>
		<g id="&lt;Group&gt;">
			<path id="&lt;Path&gt;" class="shp1" d="M215.7 139.31C214.98 140.81 214.06 142 212.94 142.89C211.47 144.06 209.52 145.08 206.81 145.22C202.96 145.42 200.45 144.2 198.06 142.54C196.84 141.69 195.68 141.01 194.86 139.88C194.22 139.15 193.51 138.64 192.71 138.36C195.71 154.82 200.86 164.35 208.16 166.95C219.12 170.85 221.08 162.44 221.42 160.13C221.71 158.16 221.42 147.58 216.48 140.71C216.39 138.88 216.29 140.11 215.7 139.31Z" />
		</g>
		<g id="&lt;Group&gt;">
			<path id="&lt;Path&gt;" class="shp3" d="M205.81 146.14C205.78 146.14 205.75 146.14 205.72 146.14C197.93 146.07 191.92 137.94 191.67 137.6C191.38 137.21 191.47 136.67 191.86 136.39C192.24 136.1 192.78 136.19 193.07 136.57C193.12 136.65 198.83 144.35 205.74 144.4C205.76 144.41 205.79 144.41 205.81 144.41C209.33 144.41 212.63 142.4 215.62 138.44L216.47 137.31L217.09 138.59C217.11 138.63 219.34 143.14 223.04 143.37C226.03 143.56 229.38 140.9 232.78 135.67C233.04 135.27 233.58 135.16 233.98 135.42C234.38 135.68 234.49 136.22 234.23 136.62C230.42 142.48 226.61 145.34 222.93 145.1C219.54 144.89 217.25 142.12 216.2 140.5C213.07 144.24 209.58 146.14 205.81 146.14Z" />
		</g>
		<path id="&lt;Path&gt;" class="shp0" d="M196.77 213.08C191.98 201.61 197.39 188.43 208.86 183.64C220.33 178.85 233.5 184.26 238.3 195.73C243.09 207.19 237.67 220.37 226.21 225.16C214.74 229.95 201.56 224.54 196.77 213.08Z" />
		<g id="&lt;Group&gt;">
			<g id="&lt;Group&gt;">
				<path id="&lt;Compound Path&gt;" fill-rule="evenodd" class="shp4" d="M202.39 244.71L209.29 210.9L190.49 218.75L235.5 160.18L228.6 193.99L247.4 186.14L202.39 244.71ZM214.87 204.15L210.03 228.27L234.82 195.82L223.02 200.75L227.86 176.63L203.07 209.08L214.87 204.15Z" />
			</g>
		</g>
		<path id="&lt;Path&gt;" class="shp4" d="M188.4 196.17C186.97 192.74 188.59 188.79 192.02 187.35C195.46 185.92 199.41 187.54 200.84 190.97C202.28 194.41 200.65 198.36 197.22 199.79C193.78 201.23 189.84 199.61 188.4 196.17Z" />
		<path id="&lt;Path&gt;" class="shp4" d="M229.35 221.76C228.34 219.33 229.48 216.54 231.91 215.53C234.34 214.51 237.13 215.66 238.15 218.09C239.16 220.52 238.02 223.31 235.59 224.32C233.16 225.34 230.37 224.19 229.35 221.76Z" />
		<path id="&lt;Path&gt;" class="shp4" d="M237.61 210.31C237.16 209.25 237.67 208.03 238.73 207.58C239.79 207.14 241.01 207.64 241.46 208.7C241.9 209.77 241.4 210.99 240.34 211.43C239.27 211.88 238.05 211.38 237.61 210.31Z" />
		<g id="&lt;Group&gt;">
			<path id="&lt;Path&gt;" class="shp1" d="M275.26 124.08C265.04 133.09 254.88 143.52 244.76 155.35C234.64 167.18 224.01 176.97 212.88 184.72C212.01 182.6 208.76 179.58 203.12 175.63C190.54 167.04 180.13 159.36 171.89 152.6C164.79 146.77 157.76 139.55 153.06 134.46C151.3 134.37 146.65 134.12 140.98 133.8C159.82 161.79 183.86 179.47 213.1 186.83C218.3 185.99 232.83 175.63 243.67 167.18C254.51 158.73 272.3 139.92 279.45 131.68C283.07 127.51 285.14 123.13 286.3 119.82C281.84 121.35 278.16 122.77 275.26 124.08Z" />
		</g>
		<path id="&lt;Path&gt;" class="shp0" d="M391.31 18.11L340.58 74.77L333.27 62.79L382.16 -2.88L391.31 18.11Z" />
		<path id="&lt;Path&gt;" class="shp0" d="M375.87 100.67L409.17 76L404.44 53.59L372.03 82.47L375.87 100.67Z" />
		<path id="&lt;Path&gt;" class="shp0" d="M359.54 293.32L396.32 312.43L414.38 298.35L374.21 281.88L359.54 293.32Z" />
		<path id="&lt;Path&gt;" class="shp0" d="M11.72 32.97L30.11 12.8L85.87 66.8L78.52 80.46L11.72 32.97Z" />
		<path id="&lt;Path&gt;" class="shp0" d="M44.29 94.82L16.08 76.04L1.65 99.21L32.58 113.61L44.29 94.82Z" />
		<path id="&lt;Path&gt;" class="shp0" d="M83.44 312.43L56.16 332.52L72.99 354L97.1 329.86L83.44 312.43Z" />
		<g id="&lt;Group&gt;">
			<path id="&lt;Path&gt;" class="shp1" d="M155.56 164.96C140.33 159.18 129.92 155.51 124.33 153.97C115.94 151.66 110.74 149.92 100.04 157.73C92.91 162.93 89.44 170.64 89.63 180.86C91.37 184.72 92.33 187.61 92.52 189.53C92.81 192.43 85.3 192.14 80.38 192.14C75.47 192.14 74.89 183.46 78.65 173.34C81.15 166.6 85.01 159.18 90.21 151.08C68.43 162.45 38.36 181.25 0 207.46C11.76 206.3 28.14 206.79 49.15 208.91C70.16 211.03 80.09 220.38 78.93 236.95C93.01 233.1 104.28 230.88 112.76 230.3C121.25 229.72 125.78 233.97 126.35 243.03L129.53 266.16C131.46 263.65 136.76 258.93 145.44 251.99C156.61 243.05 168.75 243.82 171.75 244.18L155.56 164.96Z" />
		</g>
		<g id="&lt;Group&gt;">
			<path id="&lt;Compound Path&gt;" class="shp4" d="M513.94 249.33C508.35 242.13 505.55 231.75 505.55 218.18L505.55 173.14C505.55 159.27 508.33 148.79 513.86 141.69C519.4 134.6 528.91 131.05 542.37 131.05C555.21 131.05 564.29 134.19 569.63 140.45C574.96 146.71 577.62 155.7 577.62 167.4L577.62 177.96L552.77 177.96L552.77 166.31C552.77 162.58 552.59 159.58 552.23 157.3C551.86 155.02 550.93 153.13 549.43 151.63C547.93 150.13 545.63 149.38 542.52 149.38C537.86 149.38 534.86 150.88 533.51 153.88C532.17 156.89 531.49 161.29 531.49 167.09L531.49 224.24C531.49 230.15 532.27 234.55 533.82 237.45C535.38 240.34 538.28 241.79 542.52 241.79C546.87 241.79 549.66 240.32 550.91 237.37C552.15 234.41 552.77 230.05 552.77 224.24L552.77 211.97L577.62 211.97L577.62 222.38C577.62 234.39 574.98 243.69 569.7 250.26C564.42 256.84 555.31 260.12 542.37 260.12C529.01 260.12 519.54 256.53 513.94 249.33Z" />
			<path id="&lt;Compound Path&gt;" fill-rule="evenodd" class="shp4" d="M611.48 132.6L639.91 132.6L664.14 258.41L640.53 258.41L635.87 230.77L615.99 230.77L611.17 258.41L587.1 258.41L611.48 132.6ZM633.38 214.93L625.77 164.29L618.32 214.93L633.38 214.93Z" />
			<path id="&lt;Compound Path&gt;" class="shp4" d="M682.31 151.55L662.89 151.55L662.89 132.6L727.19 132.6L727.19 151.55L708.09 151.55L708.09 258.41L682.31 258.41L682.31 151.55Z" />
			<path id="&lt;Compound Path&gt;" class="shp5" d="M777.67 132.6L826.44 132.6L826.44 145.65L795.22 145.65L795.22 187.28L820.53 187.28L820.53 199.7L795.22 199.7L795.22 245.83L826.75 245.83L826.75 258.41L777.67 258.41L777.67 132.6Z" />
			<path id="&lt;Compound Path&gt;" class="shp5" d="M840.89 132.6L852.85 132.6L888.57 216.17L888.57 132.6L903.17 132.6L903.17 258.41L891.98 258.41L855.8 172.52L855.8 258.41L840.89 258.41L840.89 132.6Z" />
			<path id="&lt;Compound Path&gt;" class="shp5" d="M922.89 132.6L971.66 132.6L971.66 145.65L940.44 145.65L940.44 187.28L965.75 187.28L965.75 199.7L940.44 199.7L940.44 245.83L971.97 245.83L971.97 258.41L922.89 258.41L922.89 132.6Z" />
			<path id="&lt;Compound Path&gt;" fill-rule="evenodd" class="shp5" d="M986.11 132.6L1011.43 132.6C1024.16 132.6 1033.5 135.22 1039.46 140.45C1045.41 145.68 1048.39 154.2 1048.39 166C1048.39 182.15 1043.21 191.94 1032.85 195.35L1050.72 258.41L1033.79 258.41L1017.32 199.39L1003.65 199.39L1003.65 258.41L986.11 258.41L986.11 132.6ZM1010.34 186.81C1017.9 186.81 1023.31 185.31 1026.57 182.31C1029.83 179.3 1031.46 173.87 1031.46 166C1031.46 160.82 1030.89 156.76 1029.75 153.81C1028.61 150.85 1026.59 148.68 1023.7 147.28C1020.8 145.89 1016.7 145.19 1011.43 145.19L1003.65 145.19L1003.65 186.81L1010.34 186.81Z" />
			<path id="&lt;Compound Path&gt;" class="shp5" d="M1072 249.17C1066.93 241.97 1064.39 231.29 1064.39 217.1L1064.39 175.01C1064.39 165.28 1065.4 157.27 1067.41 151.01C1069.44 144.75 1072.9 139.93 1077.82 136.56C1082.74 133.2 1089.5 131.52 1098.09 131.52C1109.69 131.52 1118.05 134.47 1123.18 140.37C1128.3 146.27 1130.86 155.54 1130.86 168.17L1130.86 172.83L1114.4 172.83L1114.4 168.95C1114.4 162.95 1114.04 158.31 1113.32 155.05C1112.59 151.79 1111.06 149.33 1108.74 147.67C1106.4 146.02 1102.96 145.19 1098.4 145.19C1093.54 145.19 1089.91 146.3 1087.54 148.53C1085.15 150.75 1083.62 153.73 1082.95 157.45C1082.27 161.18 1081.94 166.15 1081.94 172.37L1081.94 218.96C1081.94 228.59 1083.11 235.5 1085.43 239.7C1087.77 243.89 1092.24 245.99 1098.87 245.99C1105.39 245.99 1109.88 243.71 1112.31 239.15C1114.74 234.6 1115.96 227.3 1115.96 217.26L1115.96 208.56L1099.96 208.56L1099.96 196.13L1131.8 196.13L1131.8 258.41L1120.77 258.41L1119.06 243.97C1115.13 254.63 1107.67 259.97 1096.69 259.97C1085.31 259.97 1077.08 256.37 1072 249.17Z" />
			<path id="&lt;Compound Path&gt;" class="shp5" d="M1168.14 213.99L1140.96 132.6L1157.27 132.6L1176.53 193.33L1195.48 132.6L1211.94 132.6L1184.91 213.99L1184.91 258.41L1168.14 258.41L1168.14 213.99Z" />
		</g>
	</g>
</svg>