<svg xmlns="http://www.w3.org/2000/svg" width="1204" height="399"><style>.shp1{fill:#f06351}.shp3{fill:#000}.shp4{fill:#111}.shp5{fill:#444}</style><g id="Layer 2"><path id="&lt;Compound Path&gt;" fill-rule="evenodd" d="M321.49 385.16c-9.34 3.9-18.82 6.95-28.35 9.18 1.98-2.06 4.09-4.99 5.78-8.04 4.87-8.77 12.89-40.48 16.75-70.2.13-1.01.26-2.01.38-3.02l.03-.25c-5.32 9.67-12.35 18.46-20.22 25.87-1.08 15.14-6.7 38.65-8.7 51.63-.38 2.49-.37 4.21-.08 5.31a177.014 177.014 0 01-37.27 3.34c-.74-11.2-1.39-21.8-1.94-31.82.05-.03.09-.05.14-.07-11.71-5.23-22.79-10.9-33.24-17.81 3.69 17.11 7.75 33.21 11.79 47.78-59.77-8.91-113.56-47.95-138.55-107.78-38-90.95 4.93-195.49 95.88-233.48 90.95-38 195.48 4.93 233.48 95.88 38 90.95-4.93 195.48-95.88 233.48zm91.62-219.52c-4.36-9.07-11.08-18.48-12.76-21.16-1.68-2.69-16.12-20.49-18.47-23.51-1.57-2.02-3.36-2.91-5.38-2.69-17.46-.22-36.38 4.37-56.76 13.77.2-4.25.34-8.5.41-12.74-47.08-.26-94.45 2.95-141.1 9.31l-.37 15.86c-28.66-1.57-45.57-2.58-50.72-3.03-5.15-.44-8.06.12-8.73 1.68-4.03 2.91-8.84 9.63-14.44 20.16-6.05 9.4-10.52 18.02-13.43 25.86-4.37 11.75-3.7 21.83 2.01 21.83s14.44.33 14.11-3.02c-.23-2.24-1.35-5.6-3.36-10.08-.23-11.87 3.8-20.82 12.09-26.87 12.43-9.07 18.47-7.05 28.21-4.37 6.5 1.8 18.59 6.05 36.28 12.77l17.91 91.89c.13.02.24.03.34.05.1.01.18.02.25.03l.01.01c.15.02.24.03.28.04h.01l7.06 40.64c8.51-.89 26.64-5.03 54.41-12.42 27.76-7.39 46.69-12.43 56.77-15.12.85-34.43-.68-79.41-.68-91.35 0-15.79 1.62-15.2 9.74-24.18 9.4-10.42 45-34.93 50.04-34.6 3.36.23 9.52 8.29 18.47 24.18.23 4.26.67 9.41 1.35 15.45 1 9.07 7.39 7.06 10.41 4.03 2.01-2.01 4.03-6.15 6.04-12.42z" fill="#fdc305"/><g id="&lt;Group&gt;"><path id="&lt;Path&gt;" class="shp1" d="M393.47 135.5c3.31 4.17 6.19 7.87 6.88 8.98 1.68 2.68 8.4 12.09 12.76 21.16-2.01 6.27-4.03 10.41-6.04 12.42-3.02 3.03-9.41 5.04-10.41-4.03-.68-6.04-1.12-11.19-1.35-15.45-8.95-15.89-15.11-23.95-18.47-24.18-5.04-.33-40.64 24.18-50.04 34.6-8.12 8.98-9.74 8.39-9.74 24.18 0 10.47 1.18 46.34.9 78.24 12.61 1.45 31.12 4.95 36.71 13.11-1.34-33.36 16.8-41.31 54.41-23.84 1.35-45.46 27.99-62.36 79.94-50.72-26.34-32.33-58.19-57.16-95.55-74.47z"/></g><g id="&lt;Group&gt;"><path id="&lt;Path&gt;" class="shp1" d="M320.15 119.31c.68-39.56-2.59-77.97-9.81-115.22-.67-6.05-2.69-6.61-6.05-1.68-3.35 4.92-6.15 14.1-8.39 27.54-34.71-2.02-64.49-1.23-89.34 2.35-5.71-19.15-15.45-27.54-20.15-25.53-3.14 1.35-4.82 9.07-5.04 23.18l-2.32 98.67c46.65-6.36 94.02-9.57 141.1-9.31z"/></g><g id="&lt;Group&gt;"><path id="&lt;Path&gt;" d="M316.08 312.83c.88-7.42 1.39-17.32 1.66-28.3-10.08 2.69-29.01 7.73-56.77 15.12-27.77 7.39-45.9 11.53-54.41 12.42l7.72 34.93c.16.76.33 1.52.49 2.28 10.45 6.91 21.53 12.58 33.24 17.81 20.32-10.06 36.28-19.67 47.89-28.82-.01.14-.03.29-.04.43 7.87-7.41 14.9-16.2 20.22-25.87z" fill="#e55645"/></g><path id="&lt;Path&gt;" class="shp3" d="M223.01 97.46c-.31-.64 7.16 4.76 9.84 6.44 2.69 1.68 4.27 2.96 4.27 4.14 0 1.17-1.85 2.35-4.37 2.35-2.51 0-6.38-.84-6.71-1.85 2.8-.11 4.98-.17 6.55-.17h2.01c-6.49-4.81-10.35-8.45-11.59-10.91z"/><g id="&lt;Group&gt;"><path id="&lt;Path&gt;" class="shp3" d="M275.3 98.25c-4.88 5.94-7.41 9.05-7.6 9.32-.27.41-1.15 2.39 1.3 2.05 2.46-.34 7.78-1.57 8.53-1.98.75-.41.48-1.37-.82-1.22-1.43.15-4.78.34-6.89.75l5.88-8.83c.13-.55-.01-.58-.4-.09z"/></g><g id="&lt;Group&gt;"><path id="&lt;Path&gt;" class="shp3" d="M253.39 140.87c3.78-1.64 6.32-3.99 7.62-7.06 1.95-4.59.25-6.38-3.09-6.84-3.33-.46-9.38-.21-12.15 2.37-2.77 2.58-2.39 5.1-.38 6.68 2.02 1.57 5.92 4.22 8 4.85z"/></g><g id="&lt;Group&gt;"><path id="&lt;Path&gt;" class="shp1" d="M250.56 149.62c-.84 1.74-1.91 3.12-3.21 4.16-1.7 1.35-3.97 2.54-7.12 2.7-4.47.23-7.39-1.18-10.16-3.11-1.42-.99-2.76-1.78-3.73-3.09-.73-.85-1.56-1.44-2.49-1.77 3.49 19.12 9.48 30.19 17.96 33.21 12.72 4.54 14.99-5.24 15.39-7.93.34-2.28 0-14.56-5.74-22.55-.1-2.12-.21-.7-.9-1.62z"/></g><g id="&lt;Group&gt;"><path id="&lt;Path&gt;" class="shp3" d="M239.07 157.55h-.11c-9.04-.08-16.03-9.52-16.32-9.93a.995.995 0 01.22-1.4c.45-.33 1.08-.23 1.41.22.06.09 6.69 9.03 14.72 9.09h.08c4.09 0 7.92-2.33 11.39-6.92l1-1.32.71 1.49c.03.05 2.61 5.28 6.92 5.55 3.47.22 7.36-2.87 11.31-8.94.3-.47.92-.6 1.39-.3.47.31.6.93.3 1.4-4.43 6.81-8.85 10.13-13.14 9.85-3.94-.25-6.59-3.46-7.81-5.34-3.64 4.35-7.69 6.55-12.07 6.55z"/></g><g id="&lt;Group&gt;"><g id="&lt;Group&gt;"><path id="&lt;Compound Path&gt;" fill-rule="evenodd" class="shp4" d="M235.1 272.05l8.01-39.28-21.84 9.13 52.28-68.04-8.01 39.28 21.84-9.13-52.28 68.04zm14.49-47.12l-5.62 28.02 28.8-37.7-13.71 5.73 5.62-28.02-28.79 37.7 13.7-5.73z"/></g></g><g id="&lt;Group&gt;"><path id="&lt;Path&gt;" class="shp1" d="M319.74 131.92c-11.86 10.47-23.67 22.58-35.43 36.32-11.76 13.75-24.1 25.12-37.03 34.12-1.01-2.45-4.79-5.97-11.33-10.55-14.61-9.98-26.71-18.9-36.28-26.76-8.25-6.77-16.41-15.16-21.87-21.07-2.04-.11-7.46-.4-14.04-.76 21.89 32.51 49.81 53.05 83.77 61.6 6.05-.99 22.93-13.01 35.52-22.83 12.6-9.82 33.25-31.66 41.56-41.23 4.21-4.85 6.61-9.94 7.95-13.79-5.17 1.78-9.45 3.43-12.82 4.95z"/></g><g id="&lt;Group&gt;"><path id="&lt;Path&gt;" class="shp1" d="M180.7 179.41c-17.69-6.72-29.78-10.97-36.28-12.77-9.74-2.68-15.78-4.7-28.21 4.37-8.29 6.05-12.32 15-12.09 26.87 2.01 4.48 3.13 7.84 3.36 10.08.33 3.35-8.4 3.02-14.11 3.02-5.71 0-6.38-10.08-2.01-21.83 2.91-7.84 7.38-16.46 13.43-25.86C79.49 176.5 44.56 198.33 0 228.78c13.66-1.34 32.69-.78 57.1 1.68 24.4 2.46 35.93 13.32 34.59 32.58 16.35-4.48 29.45-7.06 39.3-7.73 9.85-.67 15.11 4.26 15.78 14.78l3.7 26.87c2.24-2.91 8.39-8.4 18.47-16.46 12.98-10.38 27.08-9.49 30.56-9.07l-18.8-92.02z"/></g><g id="&lt;Group&gt;"><path id="&lt;Compound Path&gt;" class="shp4" d="M626.91 259.35c-4.64-5.97-6.96-14.57-6.96-25.83v-37.35c0-11.51 2.3-20.21 6.89-26.09 4.6-5.88 12.48-8.83 23.65-8.83 10.64 0 18.18 2.6 22.61 7.8 4.42 5.19 6.63 12.65 6.63 22.35v8.76h-20.61v-9.66c0-3.09-.16-5.58-.45-7.48-.31-1.88-1.08-3.45-2.32-4.7-1.25-1.24-3.16-1.87-5.73-1.87-3.87 0-6.36 1.25-7.48 3.74s-1.67 6.14-1.67 10.95v47.41c0 4.9.64 8.54 1.93 10.95 1.29 2.4 3.69 3.61 7.22 3.61 3.6 0 5.92-1.23 6.95-3.68 1.03-2.45 1.55-6.07 1.55-10.88v-10.18h20.61V237c0 9.96-2.19 17.68-6.57 23.13-4.38 5.45-11.94 8.18-22.67 8.18-11.08 0-18.94-2.99-23.58-8.96z"/><path id="&lt;Compound Path&gt;" fill-rule="evenodd" class="shp4" d="M707.81 162.54h23.58l20.1 104.35H731.9l-3.86-22.93h-16.49l-3.99 22.93h-19.97l20.22-104.35zm18.17 68.28l-6.32-42-6.18 42h12.5z"/><path id="&lt;Compound Path&gt;" class="shp4" d="M766.56 178.26h-16.11v-15.72h53.34v15.72h-15.85v88.63h-21.38v-88.63z"/><path id="&lt;Compound Path&gt;" class="shp5" d="M845.65 162.54h40.45v10.82h-25.89v34.53h20.99v10.3h-20.99v38.27h26.15v10.43h-40.71V162.54zM898.09 162.54h9.92l29.62 69.31v-69.31h12.12v104.35h-9.29l-30.01-71.24v71.24h-12.36V162.54zM966.1 162.54h40.45v10.82h-25.9v34.53h21v10.3h-21v38.27h26.16v10.43H966.1V162.54z"/><path id="&lt;Compound Path&gt;" fill-rule="evenodd" class="shp5" d="M1018.54 162.54h21c10.56 0 18.31 2.17 23.25 6.51 4.94 4.33 7.41 11.4 7.41 21.19 0 13.4-4.3 21.51-12.89 24.35l14.81 52.3h-14.04l-13.65-48.95h-11.34v48.95h-14.55V162.54zm20.09 44.96c6.27 0 10.76-1.24 13.46-3.74 2.71-2.49 4.06-6.99 4.06-13.52 0-4.29-.47-7.66-1.42-10.11-.94-2.45-2.62-4.26-5.02-5.41-2.4-1.16-5.8-1.74-10.17-1.74h-6.45v34.52h5.54z"/><path id="&lt;Compound Path&gt;" class="shp5" d="M1089.77 259.22c-4.2-5.96-6.31-14.83-6.31-26.6v-34.91c0-8.07.84-14.71 2.51-19.9 1.68-5.2 4.55-9.19 8.64-11.98 4.07-2.79 9.68-4.19 16.81-4.19 9.62 0 16.55 2.45 20.8 7.34 4.26 4.9 6.38 12.59 6.38 23.06v3.87h-13.66v-3.22c0-4.98-.29-8.83-.89-11.53-.61-2.71-1.87-4.75-3.8-6.12-1.94-1.37-4.8-2.06-8.57-2.06-4.04 0-7.05.92-9.02 2.77-1.98 1.84-3.24 4.31-3.8 7.4-.56 3.09-.84 7.22-.84 12.37v38.65c0 7.98.97 13.72 2.9 17.2 1.94 3.48 5.65 5.21 11.14 5.21 5.41 0 9.13-1.88 11.15-5.66 2.02-3.78 3.03-9.84 3.03-18.17v-7.21h-13.27v-10.31h26.4v51.66h-9.14l-1.42-11.98c-3.26 8.84-9.45 13.27-18.55 13.27-9.45 0-16.27-2.98-20.49-8.96zM1169.52 230.05l-22.54-67.51h13.52l15.97 50.37 15.72-50.37h13.66l-22.42 67.51v36.84h-13.91v-36.84z"/></g></g></svg>